<?xml version="1.0" encoding="utf-8"?>
<!-- Generator: Adobe Illustrator 17.0.0, SVG Export Plug-In . SVG Version: 6.00 Build 0)  -->
<svg version="1.2" baseProfile="tiny" id="图层_1"
	 xmlns="http://www.w3.org/2000/svg" xmlns:xlink="http://www.w3.org/1999/xlink" x="0px" y="0px" width="220px" height="40px"
	 viewBox="0 0 220 40" xml:space="preserve">
<path fill="#FFFFFF" d="M7.504,8.04v31.021H3.76V1.087h2.888l25.138,31.609V1.14h3.744v37.921h-3.263L7.504,8.04z"/>
<path fill="#FFFFFF" d="M55.962,39.597c-2.032,0-3.896-0.384-5.589-1.15c-1.694-0.767-3.165-1.818-4.413-3.155
	c-1.249-1.337-2.22-2.879-2.915-4.627c-0.695-1.746-1.043-3.618-1.043-5.616c0-1.96,0.348-3.806,1.043-5.535
	s1.658-3.244,2.888-4.546c1.23-1.301,2.701-2.335,4.413-3.102c1.711-0.767,3.565-1.15,5.562-1.15c2.032,0,3.895,0.383,5.589,1.15
	c1.693,0.767,3.146,1.81,4.359,3.129c1.212,1.319,2.157,2.834,2.835,4.546c0.677,1.711,1.016,3.53,1.016,5.456
	c0,0.285,0,0.57,0,0.855c0,0.286-0.019,0.481-0.054,0.588H45.8c0.107,1.498,0.455,2.88,1.043,4.146
	c0.588,1.267,1.346,2.362,2.273,3.289c0.927,0.928,1.987,1.65,3.182,2.167c1.194,0.517,2.469,0.775,3.824,0.775
	c0.891,0,1.783-0.125,2.674-0.375c0.891-0.249,1.711-0.588,2.46-1.016c0.749-0.428,1.426-0.954,2.032-1.578
	c0.606-0.623,1.07-1.311,1.391-2.06l3.156,0.856c-0.428,1.034-1.035,1.971-1.818,2.808c-0.785,0.838-1.694,1.569-2.728,2.193
	c-1.035,0.624-2.175,1.105-3.423,1.443C58.618,39.427,57.317,39.597,55.962,39.597z M66.231,23.657
	c-0.107-1.497-0.455-2.861-1.043-4.091s-1.337-2.291-2.247-3.182c-0.909-0.891-1.961-1.586-3.156-2.086
	c-1.195-0.499-2.469-0.749-3.824-0.749s-2.639,0.25-3.851,0.749c-1.213,0.5-2.273,1.195-3.183,2.086
	c-0.909,0.892-1.641,1.961-2.193,3.209c-0.553,1.249-0.882,2.604-0.989,4.064C45.745,23.657,66.231,23.657,66.231,23.657z"/>
<path fill="#FFFFFF" d="M87.305,1.354h3.53l5.349,13.478l5.402-13.478h3.583L98.537,17.56l7.274,17.169l13.746-33.643h4.064
	l-16.099,37.975h-3.316l-7.97-18.773l-8.022,18.773h-3.263L68.905,1.087h4.012L86.716,34.73l7.22-17.169L87.305,1.354z"/>
<path fill="#FFFFFF" d="M136.67,39.597c-2.031,0-3.887-0.384-5.562-1.15c-1.675-0.767-3.127-1.81-4.357-3.129
	c-1.23-1.318-2.185-2.853-2.861-4.6c-0.678-1.747-1.017-3.584-1.017-5.509c0-1.961,0.348-3.815,1.043-5.562s1.658-3.28,2.888-4.6
	c1.23-1.318,2.684-2.371,4.359-3.155c1.676-0.784,3.512-1.177,5.508-1.177c1.998,0,3.842,0.393,5.537,1.177
	c1.693,0.785,3.154,1.837,4.385,3.155c1.23,1.32,2.193,2.854,2.889,4.6c0.695,1.747,1.043,3.602,1.043,5.562
	c0,1.925-0.34,3.762-1.016,5.509c-0.678,1.747-1.631,3.281-2.861,4.6c-1.23,1.319-2.693,2.362-4.387,3.129
	S138.703,39.597,136.67,39.597z M126.562,25.263c0,1.569,0.268,3.021,0.803,4.358s1.256,2.514,2.166,3.53
	c0.908,1.017,1.979,1.811,3.209,2.38c1.23,0.571,2.539,0.856,3.93,0.856s2.701-0.295,3.932-0.883
	c1.23-0.589,2.309-1.391,3.236-2.407c0.928-1.016,1.658-2.201,2.193-3.557c0.535-1.354,0.803-2.816,0.803-4.386
	c0-1.532-0.268-2.986-0.803-4.359c-0.535-1.372-1.266-2.567-2.193-3.583c-0.928-1.017-2.006-1.819-3.236-2.407
	c-1.23-0.588-2.541-0.882-3.932-0.882s-2.691,0.294-3.904,0.882c-1.211,0.588-2.281,1.4-3.208,2.434
	c-0.928,1.035-1.657,2.238-2.192,3.61C126.83,22.223,126.562,23.693,126.562,25.263z"/>
<path fill="#FFFFFF" d="M170.527,14.405c-2.461,0.072-4.6,0.749-6.42,2.032c-1.818,1.284-3.102,3.049-3.85,5.295v17.329h-3.637
	V11.196h3.422v6.686c1.033-2.14,2.424-3.815,4.172-5.028c1.746-1.211,3.619-1.818,5.617-1.818c0.283,0,0.516,0.019,0.695,0.054
	L170.527,14.405L170.527,14.405z"/>
<path fill="#FFFFFF" d="M175.555,0.017h3.637V32.75c0,1.035,0.285,1.846,0.855,2.434c0.57,0.589,1.373,0.883,2.406,0.883
	c0.393,0,0.857-0.054,1.391-0.16c0.535-0.107,1.035-0.249,1.498-0.429l0.643,2.942c-0.678,0.285-1.508,0.517-2.488,0.695
	c-0.98,0.178-1.826,0.268-2.539,0.268c-1.678,0-2.996-0.473-3.959-1.418c-0.963-0.944-1.443-2.272-1.443-3.984V0.017H175.555z"/>
<path fill="#FFFFFF" d="M201.387,39.597c-1.924,0-3.709-0.401-5.348-1.204c-1.641-0.802-3.049-1.862-4.225-3.182
	c-1.178-1.319-2.096-2.844-2.756-4.573s-0.988-3.538-0.988-5.429c0-1.961,0.32-3.824,0.963-5.589
	c0.641-1.765,1.523-3.307,2.646-4.626s2.461-2.362,4.012-3.129s3.254-1.15,5.107-1.15c2.354,0,4.439,0.615,6.258,1.845
	c1.818,1.23,3.244,2.719,4.279,4.466V0.017h3.637v34.337c0,0.999,0.428,1.498,1.283,1.498v3.209c-0.535,0.107-0.963,0.16-1.283,0.16
	c-0.855,0-1.604-0.275-2.246-0.829c-0.643-0.552-0.963-1.221-0.963-2.005v-2.729c-1.105,1.818-2.604,3.263-4.492,4.333
	C205.381,39.062,203.42,39.597,201.387,39.597z M202.189,36.388c0.891,0,1.846-0.179,2.861-0.535
	c1.018-0.356,1.971-0.847,2.861-1.471s1.65-1.354,2.273-2.193c0.623-0.837,1.008-1.738,1.15-2.701v-8.61
	c-0.357-0.963-0.875-1.863-1.551-2.702c-0.678-0.837-1.453-1.578-2.326-2.22c-0.875-0.642-1.811-1.141-2.809-1.498
	c-0.998-0.356-1.979-0.535-2.941-0.535c-1.498,0-2.854,0.321-4.066,0.963c-1.211,0.642-2.254,1.489-3.129,2.541
	c-0.873,1.052-1.541,2.255-2.004,3.61c-0.465,1.355-0.695,2.746-0.695,4.172c0,1.497,0.266,2.924,0.801,4.278
	c0.535,1.355,1.266,2.541,2.193,3.557c0.928,1.017,2.023,1.828,3.289,2.434C199.363,36.085,200.727,36.388,202.189,36.388z"/>
</svg>
